<svg width="238.57748413085938px" height="120.8099609375px" xmlns="http://www.w3.org/2000/svg" viewBox="130.7112579345703 14.595019531250003 238.57748413085938 120.8099609375" style="background: rgba(0, 0, 0, 0);" preserveAspectRatio="xMidYMid"><defs><filter id="editing-extrude-glow"><feFlood flood-color="#333333" result="flood-1"></feFlood><feMorphology operator="erode" radius="1" in="SourceAlpha" result="erode"></feMorphology><feComposite operator="in" in="flood-1" in2="erode" result="comp1"></feComposite><feConvolveMatrix order="3,3" divisor="1" in="comp1" result="convolve" kernelMatrix="0 0 0 1 1 1 0 0 0"></feConvolveMatrix><feOffset dx="-3" dy="0" in="convolve" result="extrude"></feOffset><feComposite operator="in" in="flood-1" in2="extrude" result="comp-extrude"></feComposite><feFlood flood-color="#000000" result="flood-2"></feFlood><feComposite operator="in" in="flood-2" in2="SourceAlpha" result="comp2"></feComposite><feMorphology operator="dilate" radius="1" in="comp2" result="dilate"></feMorphology><feOffset dx="-4.5" dy="0" in="dilate" result="offset"></feOffset><feGaussianBlur in="offset" stdDeviation="5.8" result="blur"></feGaussianBlur><feComponentTransfer in="blur" result="shadow"><feFuncA type="linear" slope="0.8" intercept="-0.2"></feFuncA></feComponentTransfer><feMerge><feMergeNode in="shadow"></feMergeNode><feMergeNode in="comp-extrude"></feMergeNode><feMergeNode in="SourceGraphic"></feMergeNode></feMerge></filter></defs><g filter="url(#editing-extrude-glow)"><g transform="translate(169.13500452041626, 97.36999893188477)"><path d="M2.69-39.68L2.69-39.68L2.69-39.68Q3.58-41.47 5.54-42.46L5.54-42.46L5.54-42.46Q7.49-43.46 10.18-43.46L10.18-43.46L10.18-43.46Q14.40-43.46 16.93-40.42L16.93-40.42L16.93-40.42Q19.46-37.38 19.46-30.72L19.46-30.72L19.46-7.87L34.11-42.18L41.66-42.18L43.39-9.79L43.20-7.94L58.43-42.18L67.20-42.18L46.72 0L33.09 0L31.81-19.46L23.36 0L7.94 0L6.02-30.72L6.02-30.72Q5.82-34.18 4.90-36.45L4.90-36.45L4.90-36.45Q3.97-38.72 2.69-39.68ZM89.47-42.69L89.47-42.69L89.47-42.69Q105.15-42.69 105.15-31.62L105.15-31.62L105.15-31.62Q105.15-25.54 101.25-21.89L101.25-21.89L101.25-21.89Q97.41-18.24 90.69-18.24L90.69-18.24L90.69-18.24Q87.55-18.24 85.12-20.03L85.12-20.03L85.12-20.03Q83.97-20.80 83.20-21.82L83.20-21.82L83.20-21.82Q87.87-21.82 90.34-24.67L90.34-24.67L90.34-24.67Q92.80-27.52 92.80-33.09L92.80-33.09L92.80-33.09Q92.80-38.66 87.30-38.66L87.30-38.66L85.76-38.66L85.76-38.66Q85.38-38.66 85.06-38.59L85.06-38.59L77.70 0L63.81 0L71.68-41.92L71.68-41.92Q78.53-42.56 82.50-42.62L82.50-42.62L82.50-42.62Q86.46-42.69 89.47-42.69ZM110.91 0L103.55 0L115.14-42.24L128.51-42.24L131.46-18.11L143.36-42.24L154.56-42.24L155.71-10.62L155.71-10.62Q155.97-4.35 159.04-2.43L159.04-2.43L159.04-2.43Q158.34-1.15 156.29 0.06L156.29 0.06L156.29 0.06Q154.24 1.28 151.52 1.28L151.52 1.28L151.52 1.28Q148.80 1.28 147.20 0.51L147.20 0.51L147.20 0.51Q145.60-0.26 144.70-1.54L144.70-1.54L144.70-1.54Q143.10-3.84 143.10-8.26L143.10-8.26L143.10-28.03L130.50 0L122.56 0L118.08-28.74L110.91 0Z" fill="#eb6c6c"></path></g></g><style>text {
  font-size: 64px;
  font-family: Arial Black;
  dominant-baseline: central;
  text-anchor: middle;
}</style></svg>